Coordinates
version=1
nRows=14
nColumns=40
inDegrees=yes

Units are S.I. units (second, meters, Newtons, ...)
Angles are in degrees.

endheader
time	pelvis_tilt	pelvis_list	pelvis_rotation	pelvis_tx	pelvis_ty	pelvis_tz	hip_flexion_r	hip_adduction_r	hip_rotation_r	knee_angle_r	knee_angle_r_beta	ankle_angle_r	subtalar_angle_r	mtp_angle_r	hip_flexion_l	hip_adduction_l	hip_rotation_l	knee_angle_l	knee_angle_l_beta	ankle_angle_l	subtalar_angle_l	mtp_angle_l	lumbar_extension	lumbar_bending	lumbar_rotation	arm_flex_r	arm_add_r	arm_rot_r	elbow_flex_r	pro_sup_r	wrist_flex_r	wrist_dev_r	arm_flex_l	arm_add_l	arm_rot_l	elbow_flex_l	pro_sup_l	wrist_flex_l	wrist_dev_l
      9.13000000	     -1.78579867	     -4.82352158	     -2.09243619	      0.99117094	      0.93027053	      0.49132240	     15.95201620	      1.02636685	    -10.14005454	     17.90047119	     17.90047119	      5.58618612	     -2.72772185	     -5.89551070	      2.24121523	     -9.27821976	    -10.27853706	     29.36091991	     29.36091991	     18.25620583	     -9.31162117	     -2.47076994	     -9.16468453	      5.17352061	     -0.02201735	      3.54513255	    -14.51151905	     -6.08742544	     46.08478272	     45.60038125	      0.00000000	      0.00000000	     12.08748597	    -13.93847183	    -10.13816463	     52.58101914	     47.19371053	      0.00000000	      0.00000000
      9.14342857	     -1.64916717	     -5.00540505	     -1.68352965	      0.99190702	      0.93102256	      0.49401792	     15.10022624	      1.36346639	    -10.60401101	     17.45679190	     17.45679190	      5.88016863	     -2.46706178	     -6.06730049	      3.81473199	    -10.07973295	     -9.28049224	     32.96209149	     32.96209149	     16.83479780	    -10.63051781	     -3.60490115	     -9.19564303	      5.38280356	      0.01047993	      4.88944270	    -14.67892799	     -5.90805888	     46.91322863	     45.56926578	      0.00000000	      0.00000000	     11.23778537	    -13.60588178	     -9.81836740	     50.96367071	     47.13628568	      0.00000000	      0.00000000
      9.15685714	     -1.53344094	     -5.10915984	     -1.28633345	      0.99252499	      0.93156763	      0.49663531	     14.28873540	      1.61472431	    -11.06602373	     16.99849094	     16.99849094	      5.91491403	     -2.26079256	     -6.96988071	      5.32395368	    -10.70353639	     -8.17619841	     36.04424044	     36.04424044	     12.35240403	    -13.75071444	    -10.82949016	     -9.13312560	      5.55533011	      0.50578954	      5.38775384	    -15.49361813	     -4.33271798	     49.38592161	     45.42118706	      0.00000000	      0.00000000	     11.57409879	    -13.16855305	     -8.47883599	     46.65184768	     46.94073266	      0.00000000	      0.00000000
      9.17028571	     -1.46124021	     -5.29101062	     -0.86641202	      0.99287164	      0.93190924	      0.49930295	     13.58624901	      1.95696500	    -11.54231971	     16.63518859	     16.63518859	      6.17808091	     -1.99523147	     -7.06811695	      7.42534386	    -11.48930411	     -7.04786792	     40.23450999	     40.23450999	     10.45796770	    -14.95630114	    -11.38726943	     -9.13053934	      5.73674374	      0.44239513	      6.85627253	    -15.58041220	     -4.35348574	     50.36820743	     45.39654677	      0.00000000	      0.00000000	     10.52850455	    -12.90031725	     -8.17096685	     45.36687296	     46.88431840	      0.00000000	      0.00000000
      9.18371429	     -1.26878419	     -5.50883719	     -0.44373903	      0.99309584	      0.93216849	      0.50194778	     12.84299114	      2.33686988	    -11.96713620	     16.41931751	     16.41931751	      6.51609791	     -1.85408732	     -7.19131898	      9.51832226	    -12.26589586	     -5.87229025	     44.48626400	     44.48626400	      8.36273675	    -16.01104233	    -11.65759619	     -9.30390359	      5.93729906	      0.59299472	      8.35673876	    -15.79385522	     -4.35086408	     51.36100434	     45.36999199	      0.00000000	      0.00000000	      9.61411224	    -12.53060690	     -7.88456075	     44.23518010	     46.83369727	      0.00000000	      0.00000000
      9.19714286	     -1.22155922	     -5.59754360	      0.00003304	      0.99308170	      0.93206301	      0.50432710	     12.39293868	      2.53279885	    -12.42269077	     16.42004106	     16.42004106	      6.80929288	     -1.79684396	     -7.47338907	     11.87443256	    -12.74718099	     -4.53723664	     48.68295862	     48.68295862	      6.07132797	    -17.12017871	    -11.44224037	     -9.27973861	      6.05026833	      0.40291917	      9.64607862	    -16.07854337	     -3.60825817	     53.63497672	     45.26906675	      0.00000000	      0.00000000	      9.01865846	    -12.34685407	     -7.15468772	     41.41388352	     46.72318481	      0.00000000	      0.00000000
      9.21057143	     -1.15652629	     -5.75302965	      0.41822555	      0.99290197	      0.93187119	      0.50664735	     11.91870273	      2.83032116	    -12.74217125	     16.36404432	     16.36404432	      7.10127255	     -1.84765163	     -7.66175247	     14.32804315	    -13.18700061	     -3.16237105	     52.91421492	     52.91421492	      4.71249620	    -17.45400303	     -8.74538823	     -9.34415558	      6.16416131	      0.97559459	     10.35497450	    -16.93747816	     -2.74702068	     56.33016465	     45.15996991	      0.00000000	      0.00000000	      8.91770746	    -11.85055417	     -6.12486224	     38.72044596	     46.57877095	      0.00000000	      0.00000000
      9.22400000	     -1.09152526	     -5.92440318	      0.85051623	      0.99261107	      0.93162485	      0.50886209	     11.49354291	      3.14181630	    -13.05599243	     16.37924172	     16.37924172	      7.44405415	     -1.98374204	     -7.74226292	     16.65643284	    -13.59827277	     -1.91884049	     56.59859101	     56.59859101	      2.73396904	    -17.96786402	     -7.68578565	     -9.43381090	      6.27968895	      0.98185692	     11.98115067	    -17.05148970	     -2.89946538	     57.56642860	     45.13414256	      0.00000000	      0.00000000	      7.83505913	    -11.52524833	     -5.88101979	     37.73744172	     46.52947785	      0.00000000	      0.00000000
      9.23742857	     -1.00757544	     -5.85657193	      1.24480275	      0.99210961	      0.93140302	      0.51069053	     11.22223165	      3.15087863	    -13.21172256	     16.70822785	     16.70822785	      7.84444643	     -2.33712268	     -7.73205096	     19.02241530	    -13.44999573	     -0.58746411	     60.22483243	     60.22483243	      2.77954922	    -17.95583726	     -1.69154033	     -9.58990014	      6.16396687	      0.92844539	     13.29438902	    -17.45500627	     -2.26457953	     60.39991100	     45.03346574	      0.00000000	      0.00000000	      7.22312526	    -11.23548999	     -5.24946828	     35.39793287	     46.43030794	      0.00000000	      0.00000000
      9.25085714	     -1.02055871	     -6.00154097	      1.69798069	      0.99162435	      0.93110924	      0.51252048	     10.89575826	      3.42021204	    -13.48995306	     16.71434693	     16.71434693	      8.20356592	     -2.49557265	     -7.75944788	     21.24011331	    -13.67778096	      0.41872821	     62.94494253	     62.94494253	      1.54168582	    -18.23728156	     -0.15204029	     -9.59971330	      6.26213074	      0.99122403	     14.82385293	    -17.61524485	     -2.37890767	     61.72046736	     45.00448000	      0.00000000	      0.00000000	      6.21172026	    -10.84316128	     -5.03425265	     34.42878470	     46.38436537	      0.00000000	      0.00000000
      9.26428571	     -0.96848012	     -5.89699120	      2.07891527	      0.99094248	      0.93102489	      0.51407441	     10.62284853	      3.40610674	    -13.61921000	     16.94351231	     16.94351231	      8.59081464	     -2.92777987	     -7.59621381	     23.26094723	    -13.46944367	      1.24506843	     65.24997371	     65.24997371	      1.96068574	    -18.36922327	      4.50698601	     -9.77548703	      6.07634288	      0.85837972	     16.38811773	    -17.81699656	     -2.02494153	     64.33639920	     44.92275566	      0.00000000	      0.00000000	      5.38291083	    -10.52841477	     -4.67353465	     32.59218772	     46.31956892	      0.00000000	      0.00000000
      9.27771429	     -0.89894104	     -5.84297646	      2.44841831	      0.99030657	      0.93125619	      0.51560344	     10.15969238	      3.48143490	    -13.71592251	     16.85411689	     16.85411689	      8.92319994	     -3.03500990	     -7.60003519	     24.92614042	    -13.51460295	      1.62974396	     66.53931158	     66.53931158	      1.34348897	    -18.67492564	      5.34755419	     -9.99224253	      5.96975764	      1.30739628	     18.03136972	    -18.26065557	     -2.23575192	     65.30576265	     44.90800480	      0.00000000	      0.00000000	      4.52680327	    -10.01765347	     -4.55009870	     31.99201896	     46.28821775	      0.00000000	      0.00000000
      9.29114286	     -0.98061387	     -5.72685973	      2.85031507	      0.98946070	      0.93131486	      0.51683745	      9.93566140	      3.47196730	    -13.79440153	     16.88823911	     16.88823911	      9.36429963	     -3.38976521	     -7.11315383	     26.86382183	    -13.22515652	      2.13791074	     67.67451387	     67.67451387	      3.40468484	    -18.67060347	     12.18408836	    -10.04425333	      5.75362077	      1.40110935	     18.90985501	    -18.75761992	     -1.71024386	     68.75855270	     44.80831711	      0.00000000	      0.00000000	      4.10151197	     -9.58870101	     -4.21594691	     29.76638257	     46.23476441	      0.00000000	      0.00000000
      9.30457143	     -1.01127527	     -5.65684330	      3.25815500	      0.98867414	      0.93161233	      0.51810702	      9.53000331	      3.54462235	    -13.93827898	     16.67078630	     16.67078630	      9.62012916	     -3.60227927	     -6.99919647	     28.30395140	    -13.24352097	      2.16347335	     67.64412459	     67.64412459	      3.77961787	    -18.93753364	     12.84133359	    -10.15042928	      5.58374761	      1.23554539	     20.65572609	    -18.54754296	     -2.00408646	     70.33075779	     44.78128891	      0.00000000	      0.00000000	      3.01138259	     -9.27332626	     -4.10090922	     28.90411143	     46.20012150	      0.00000000	      0.00000000
